<?xml version="1.0" standalone="no"?>
<!DOCTYPE svg PUBLIC "-//W3C//DTD SVG 1.1//EN"
 "http://www.w3.org/Graphics/SVG/1.1/DTD/svg11.dtd">
<svg width="40" height="40">
    <defs>
        <style type="text/css"><![CDATA[
            .reverse {fill: white}
            .colour {fill: #ff6600}
        ]]></style>
    </defs>
<path d="M 3.0 3.5 l 0 1 l 0 1 l 0 1 l 0 1 l 0 1 l 0 1 c 0.0,0.276142374915 0.276142374915,0.5 0.5,0.5 l 1 0 l 1 0 l 1 0 l 1 0 l 1 0 l 1 0 c 0.276142374915,0.0 0.5,-0.276142374915 0.5,-0.5 l 0 -1 l 0 -1 l 0 -1 l 0 -1 l 0 -1 l 0 -1 c 0.0,-0.276142374915 -0.276142374915,-0.5 -0.5,-0.5 l -1 0 l -1 0 l -1 0 l -1 0 l -1 0 l -1 0 c -0.276142374915,0.0 -0.5,0.276142374915 -0.5,0.5  z" />
<path d="M 3.0 14.5 l 0 1 c 0.0,0.276142374915 0.276142374915,0.5 0.5,0.5 c 0.276142374915,0.0 0.5,-0.276142374915 0.5,-0.5 c 0.0,-0.276142374915 0.276142374915,-0.5 0.5,-0.5 c 0.276142374915,0.0 0.5,-0.276142374915 0.5,-0.5 c 0.0,-0.276142374915 0.276142374915,-0.5 0.5,-0.5 c 0.276142374915,0.0 0.5,-0.276142374915 0.5,-0.5 l 0 -1 c 0.0,-0.276142374915 0.276142374915,-0.5 0.5,-0.5 l 1 0 c 0.276142374915,0.0 0.5,-0.276142374915 0.5,-0.5 c 0.0,-0.276142374915 -0.276142374915,-0.5 -0.5,-0.5 l -1 0 l -1 0 c -0.276142374915,0.0 -0.5,0.276142374915 -0.5,0.5 l 0 1 c 0.0,0.276142374915 -0.276142374915,0.5 -0.5,0.5 c -0.276142374915,0.0 -0.5,0.276142374915 -0.5,0.5 c 0.0,0.276142374915 -0.276142374915,0.5 -0.5,0.5 c -0.276142374915,0.0 -0.5,0.276142374915 -0.5,0.5  z" />
<path d="M 3.0 18.5 l 0 1 c 0.0,0.276142374915 0.276142374915,0.5 0.5,0.5 l 1 0 c 0.276142374915,0.0 0.5,0.276142374915 0.5,0.5 c 0.0,0.276142374915 -0.276142374915,0.5 -0.5,0.5 l -1 0 c -0.276142374915,0.0 -0.5,0.276142374915 -0.5,0.5 c 0.0,0.276142374915 0.276142374915,0.5 0.5,0.5 l 1 0 l 1 0 l 1 0 l 1 0 c 0.276142374915,0.0 0.5,-0.276142374915 0.5,-0.5 c 0.0,-0.276142374915 -0.276142374915,-0.5 -0.5,-0.5 c -0.276142374915,0.0 -0.5,-0.276142374915 -0.5,-0.5 c 0.0,-0.276142374915 -0.276142374915,-0.5 -0.5,-0.5 c -0.276142374915,0.0 -0.5,-0.276142374915 -0.5,-0.5 l 0 -1 c 0.0,-0.276142374915 0.276142374915,-0.5 0.5,-0.5 c 0.276142374915,0.0 0.5,0.276142374915 0.5,0.5 l 0 1 c 0.0,0.276142374915 0.276142374915,0.5 0.5,0.5 c 0.276142374915,0.0 0.5,-0.276142374915 0.5,-0.5 c 0.0,-0.276142374915 0.276142374915,-0.5 0.5,-0.5 c 0.276142374915,0.0 0.5,-0.276142374915 0.5,-0.5 c 0.0,-0.276142374915 -0.276142374915,-0.5 -0.5,-0.5 c -0.276142374915,0.0 -0.5,-0.276142374915 -0.5,-0.5 c 0.0,-0.276142374915 -0.276142374915,-0.5 -0.5,-0.5 l -1 0 l -1 0 c -0.276142374915,0.0 -0.5,-0.276142374915 -0.5,-0.5 c 0.0,-0.276142374915 -0.276142374915,-0.5 -0.5,-0.5 c -0.276142374915,0.0 -0.5,0.276142374915 -0.5,0.5 l 0 1 c 0.0,0.276142374915 0.276142374915,0.5 0.5,0.5 c 0.276142374915,0.0 0.5,0.276142374915 0.5,0.5 c 0.0,0.276142374915 -0.276142374915,0.5 -0.5,0.5 c -0.276142374915,0.0 -0.5,-0.276142374915 -0.5,-0.5 c 0.0,-0.276142374915 -0.276142374915,-0.5 -0.5,-0.5 c -0.276142374915,0.0 -0.5,0.276142374915 -0.5,0.5  z" />
<path d="M 3.0 24.5 l 0 1 l 0 1 l 0 1 c 0.0,0.276142374915 0.276142374915,0.5 0.5,0.5 c 0.276142374915,0.0 0.5,-0.276142374915 0.5,-0.5 l 0 -1 l 0 -1 c 0.0,-0.276142374915 0.276142374915,-0.5 0.5,-0.5 l 1 0 c 0.276142374915,0.0 0.5,-0.276142374915 0.5,-0.5 c 0.0,-0.276142374915 -0.276142374915,-0.5 -0.5,-0.5 l -1 0 l -1 0 c -0.276142374915,0.0 -0.5,0.276142374915 -0.5,0.5  z" />
<path d="M 3.0 29.5 l 0 1 l 0 1 l 0 1 l 0 1 l 0 1 l 0 1 c 0.0,0.276142374915 0.276142374915,0.5 0.5,0.5 l 1 0 l 1 0 l 1 0 l 1 0 l 1 0 l 1 0 c 0.276142374915,0.0 0.5,-0.276142374915 0.5,-0.5 l 0 -1 l 0 -1 l 0 -1 l 0 -1 l 0 -1 l 0 -1 c 0.0,-0.276142374915 -0.276142374915,-0.5 -0.5,-0.5 l -1 0 l -1 0 l -1 0 l -1 0 l -1 0 l -1 0 c -0.276142374915,0.0 -0.5,0.276142374915 -0.5,0.5  z" />
<path d="M 4.5 4.0 l 1 0 l 1 0 l 1 0 l 1 0 c 0.276142374915,0.0 0.5,0.276142374915 0.5,0.5 l 0 1 l 0 1 l 0 1 l 0 1 c 0.0,0.276142374915 -0.276142374915,0.5 -0.5,0.5 l -1 0 l -1 0 l -1 0 l -1 0 c -0.276142374915,0.0 -0.5,-0.276142374915 -0.5,-0.5 l 0 -1 l 0 -1 l 0 -1 l 0 -1 c 0.0,-0.276142374915 0.276142374915,-0.5 0.5,-0.5  z" class="reverse" />
<path d="M 4.5 30.0 l 1 0 l 1 0 l 1 0 l 1 0 c 0.276142374915,0.0 0.5,0.276142374915 0.5,0.5 l 0 1 l 0 1 l 0 1 l 0 1 c 0.0,0.276142374915 -0.276142374915,0.5 -0.5,0.5 l -1 0 l -1 0 l -1 0 l -1 0 c -0.276142374915,0.0 -0.5,-0.276142374915 -0.5,-0.5 l 0 -1 l 0 -1 l 0 -1 l 0 -1 c 0.0,-0.276142374915 0.276142374915,-0.5 0.5,-0.5  z" class="reverse" />
<path d="M 5.0 5.5 l 0 1 l 0 1 c 0.0,0.276142374915 0.276142374915,0.5 0.5,0.5 l 1 0 l 1 0 c 0.276142374915,0.0 0.5,-0.276142374915 0.5,-0.5 l 0 -1 l 0 -1 c 0.0,-0.276142374915 -0.276142374915,-0.5 -0.5,-0.5 l -1 0 l -1 0 c -0.276142374915,0.0 -0.5,0.276142374915 -0.5,0.5  z" class="colour" />
<path d="M 5.0 26.5 c 0.0,0.276142374915 0.276142374915,0.5 0.5,0.5 c 0.276142374915,0.0 0.5,-0.276142374915 0.5,-0.5 c 0.0,-0.276142374915 -0.276142374915,-0.5 -0.5,-0.5 c -0.276142374915,0.0 -0.5,0.276142374915 -0.5,0.5  z" class="colour" />
<path d="M 5.0 31.5 l 0 1 l 0 1 c 0.0,0.276142374915 0.276142374915,0.5 0.5,0.5 l 1 0 l 1 0 c 0.276142374915,0.0 0.5,-0.276142374915 0.5,-0.5 l 0 -1 l 0 -1 c 0.0,-0.276142374915 -0.276142374915,-0.5 -0.5,-0.5 l -1 0 l -1 0 c -0.276142374915,0.0 -0.5,0.276142374915 -0.5,0.5  z" class="colour" />
<path d="M 6.0 15.5 c 0.0,0.276142374915 0.276142374915,0.5 0.5,0.5 c 0.276142374915,0.0 0.5,-0.276142374915 0.5,-0.5 c 0.0,-0.276142374915 -0.276142374915,-0.5 -0.5,-0.5 c -0.276142374915,0.0 -0.5,0.276142374915 -0.5,0.5  z" class="colour" />
<path d="M 6.5 28.0 c 0.276142374915,0.0 0.5,-0.276142374915 0.5,-0.5 c 0.0,-0.276142374915 -0.276142374915,-0.5 -0.5,-0.5 c -0.276142374915,0.0 -0.5,0.276142374915 -0.5,0.5 c 0.0,0.276142374915 0.276142374915,0.5 0.5,0.5  z" class="colour" />
<path d="M 7.0 14.5 c 0.0,0.276142374915 0.276142374915,0.5 0.5,0.5 c 0.276142374915,0.0 0.5,0.276142374915 0.5,0.5 c 0.0,0.276142374915 0.276142374915,0.5 0.5,0.5 l 1 0 l 1 0 c 0.276142374915,0.0 0.5,-0.276142374915 0.5,-0.5 c 0.0,-0.276142374915 -0.276142374915,-0.5 -0.5,-0.5 l -1 0 c -0.276142374915,0.0 -0.5,-0.276142374915 -0.5,-0.5 c 0.0,-0.276142374915 0.276142374915,-0.5 0.5,-0.5 l 1 0 c 0.276142374915,0.0 0.5,0.276142374915 0.5,0.5 c 0.0,0.276142374915 0.276142374915,0.5 0.5,0.5 c 0.276142374915,0.0 0.5,-0.276142374915 0.5,-0.5 l 0 -1 c 0.0,-0.276142374915 0.276142374915,-0.5 0.5,-0.5 c 0.276142374915,0.0 0.5,-0.276142374915 0.5,-0.5 l 0 -1 c 0.0,-0.276142374915 -0.276142374915,-0.5 -0.5,-0.5 c -0.276142374915,0.0 -0.5,-0.276142374915 -0.5,-0.5 l 0 -1 c 0.0,-0.276142374915 0.276142374915,-0.5 0.5,-0.5 c 0.276142374915,0.0 0.5,-0.276142374915 0.5,-0.5 c 0.0,-0.276142374915 -0.276142374915,-0.5 -0.5,-0.5 l -1 0 c -0.276142374915,0.0 -0.5,0.276142374915 -0.5,0.5 l 0 1 l 0 1 l 0 1 c 0.0,0.276142374915 -0.276142374915,0.5 -0.5,0.5 c -0.276142374915,0.0 -0.5,0.276142374915 -0.5,0.5 c 0.0,0.276142374915 -0.276142374915,0.5 -0.5,0.5 l -1 0 c -0.276142374915,0.0 -0.5,0.276142374915 -0.5,0.5 c 0.0,0.276142374915 -0.276142374915,0.5 -0.5,0.5 c -0.276142374915,0.0 -0.5,0.276142374915 -0.5,0.5  z" />
<path d="M 7.0 23.5 l 0 1 l 0 1 l 0 1 c 0.0,0.276142374915 0.276142374915,0.5 0.5,0.5 l 1 0 c 0.276142374915,0.0 0.5,-0.276142374915 0.5,-0.5 c 0.0,-0.276142374915 -0.276142374915,-0.5 -0.5,-0.5 c -0.276142374915,0.0 -0.5,-0.276142374915 -0.5,-0.5 l 0 -1 c 0.0,-0.276142374915 0.276142374915,-0.5 0.5,-0.5 l 1 0 l 1 0 l 1 0 l 1 0 c 0.276142374915,0.0 0.5,-0.276142374915 0.5,-0.5 c 0.0,-0.276142374915 0.276142374915,-0.5 0.5,-0.5 c 0.276142374915,0.0 0.5,-0.276142374915 0.5,-0.5 c 0.0,-0.276142374915 0.276142374915,-0.5 0.5,-0.5 l 1 0 c 0.276142374915,0.0 0.5,-0.276142374915 0.5,-0.5 l 0 -1 l 0 -1 l 0 -1 c 0.0,-0.276142374915 -0.276142374915,-0.5 -0.5,-0.5 l -1 0 c -0.276142374915,0.0 -0.5,-0.276142374915 -0.5,-0.5 c 0.0,-0.276142374915 -0.276142374915,-0.5 -0.5,-0.5 c -0.276142374915,0.0 -0.5,0.276142374915 -0.5,0.5 c 0.0,0.276142374915 -0.276142374915,0.5 -0.5,0.5 l -1 0 c -0.276142374915,0.0 -0.5,0.276142374915 -0.5,0.5 c 0.0,0.276142374915 0.276142374915,0.5 0.5,0.5 l 1 0 c 0.276142374915,0.0 0.5,0.276142374915 0.5,0.5 c 0.0,0.276142374915 -0.276142374915,0.5 -0.5,0.5 l -1 0 c -0.276142374915,0.0 -0.5,0.276142374915 -0.5,0.5 c 0.0,0.276142374915 -0.276142374915,0.5 -0.5,0.5 l -1 0 c -0.276142374915,0.0 -0.5,0.276142374915 -0.5,0.5 c 0.0,0.276142374915 0.276142374915,0.5 0.5,0.5 c 0.276142374915,0.0 0.5,0.276142374915 0.5,0.5 c 0.0,0.276142374915 -0.276142374915,0.5 -0.5,0.5 l -1 0 l -1 0 c -0.276142374915,0.0 -0.5,0.276142374915 -0.5,0.5  z" />
<path d="M 9.0 11.5 c 0.0,0.276142374915 0.276142374915,0.5 0.5,0.5 c 0.276142374915,0.0 0.5,-0.276142374915 0.5,-0.5 c 0.0,-0.276142374915 -0.276142374915,-0.5 -0.5,-0.5 c -0.276142374915,0.0 -0.5,0.276142374915 -0.5,0.5  z" class="colour" />
<path d="M 9.0 17.5 c 0.0,0.276142374915 0.276142374915,0.5 0.5,0.5 l 1 0 c 0.276142374915,0.0 0.5,-0.276142374915 0.5,-0.5 c 0.0,-0.276142374915 -0.276142374915,-0.5 -0.5,-0.5 l -1 0 c -0.276142374915,0.0 -0.5,0.276142374915 -0.5,0.5  z" />
<path d="M 8.5 20.0 c -0.276142374915,0.0 -0.5,0.276142374915 -0.5,0.5 c 0.0,0.276142374915 0.276142374915,0.5 0.5,0.5 c 0.276142374915,0.0 0.5,-0.276142374915 0.5,-0.5 c 0.0,-0.276142374915 -0.276142374915,-0.5 -0.5,-0.5  z" class="colour" />
<path d="M 9.0 25.5 c 0.0,0.276142374915 0.276142374915,0.5 0.5,0.5 l 1 0 l 1 0 c 0.276142374915,0.0 0.5,-0.276142374915 0.5,-0.5 c 0.0,-0.276142374915 -0.276142374915,-0.5 -0.5,-0.5 l -1 0 l -1 0 c -0.276142374915,0.0 -0.5,0.276142374915 -0.5,0.5  z" />
<path d="M 9.5 28.0 c 0.276142374915,0.0 0.5,-0.276142374915 0.5,-0.5 c 0.0,-0.276142374915 -0.276142374915,-0.5 -0.5,-0.5 c -0.276142374915,0.0 -0.5,0.276142374915 -0.5,0.5 c 0.0,0.276142374915 0.276142374915,0.5 0.5,0.5  z" class="colour" />
<path d="M 9.5 19.0 c -0.276142374915,0.0 -0.5,0.276142374915 -0.5,0.5 c 0.0,0.276142374915 0.276142374915,0.5 0.5,0.5 c 0.276142374915,0.0 0.5,-0.276142374915 0.5,-0.5 c 0.0,-0.276142374915 -0.276142374915,-0.5 -0.5,-0.5  z" class="colour" />
<path d="M 11.0 3.5 l 0 1 l 0 1 c 0.0,0.276142374915 0.276142374915,0.5 0.5,0.5 c 0.276142374915,0.0 0.5,-0.276142374915 0.5,-0.5 c 0.0,-0.276142374915 0.276142374915,-0.5 0.5,-0.5 c 0.276142374915,0.0 0.5,0.276142374915 0.5,0.5 c 0.0,0.276142374915 -0.276142374915,0.5 -0.5,0.5 c -0.276142374915,0.0 -0.5,0.276142374915 -0.5,0.5 c 0.0,0.276142374915 0.276142374915,0.5 0.5,0.5 l 1 0 c 0.276142374915,0.0 0.5,-0.276142374915 0.5,-0.5 c 0.0,-0.276142374915 0.276142374915,-0.5 0.5,-0.5 c 0.276142374915,0.0 0.5,0.276142374915 0.5,0.5 c 0.0,0.276142374915 0.276142374915,0.5 0.5,0.5 c 0.276142374915,0.0 0.5,-0.276142374915 0.5,-0.5 l 0 -1 c 0.0,-0.276142374915 -0.276142374915,-0.5 -0.5,-0.5 l -1 0 c -0.276142374915,0.0 -0.5,-0.276142374915 -0.5,-0.5 c 0.0,-0.276142374915 -0.276142374915,-0.5 -0.5,-0.5 c -0.276142374915,0.0 -0.5,-0.276142374915 -0.5,-0.5 c 0.0,-0.276142374915 -0.276142374915,-0.5 -0.5,-0.5 l -1 0 c -0.276142374915,0.0 -0.5,0.276142374915 -0.5,0.5  z" />
<path d="M 11.5 22.0 c 0.276142374915,0.0 0.5,0.276142374915 0.5,0.5 c 0.0,0.276142374915 -0.276142374915,0.5 -0.5,0.5 c -0.276142374915,0.0 -0.5,-0.276142374915 -0.5,-0.5 c 0.0,-0.276142374915 0.276142374915,-0.5 0.5,-0.5  z" class="reverse" />
<path d="M 11.0 28.5 c 0.0,0.276142374915 0.276142374915,0.5 0.5,0.5 c 0.276142374915,0.0 0.5,0.276142374915 0.5,0.5 l 0 1 c 0.0,0.276142374915 -0.276142374915,0.5 -0.5,0.5 c -0.276142374915,0.0 -0.5,0.276142374915 -0.5,0.5 l 0 1 l 0 1 c 0.0,0.276142374915 0.276142374915,0.5 0.5,0.5 c 0.276142374915,0.0 0.5,-0.276142374915 0.5,-0.5 l 0 -1 c 0.0,-0.276142374915 0.276142374915,-0.5 0.5,-0.5 l 1 0 c 0.276142374915,0.0 0.5,-0.276142374915 0.5,-0.5 c 0.0,-0.276142374915 -0.276142374915,-0.5 -0.5,-0.5 c -0.276142374915,0.0 -0.5,-0.276142374915 -0.5,-0.5 c 0.0,-0.276142374915 0.276142374915,-0.5 0.5,-0.5 c 0.276142374915,0.0 0.5,-0.276142374915 0.5,-0.5 l 0 -1 c 0.0,-0.276142374915 -0.276142374915,-0.5 -0.5,-0.5 l -1 0 l -1 0 c -0.276142374915,0.0 -0.5,0.276142374915 -0.5,0.5  z" />
<path d="M 11.5 16.0 c -0.276142374915,0.0 -0.5,0.276142374915 -0.5,0.5 c 0.0,0.276142374915 0.276142374915,0.5 0.5,0.5 l 1 0 c 0.276142374915,0.0 0.5,-0.276142374915 0.5,-0.5 c 0.0,-0.276142374915 -0.276142374915,-0.5 -0.5,-0.5 l -1 0  z" />
<path d="M 12.5 27.0 l 1 0 c 0.276142374915,0.0 0.5,0.276142374915 0.5,0.5 c 0.0,0.276142374915 0.276142374915,0.5 0.5,0.5 c 0.276142374915,0.0 0.5,-0.276142374915 0.5,-0.5 l 0 -1 c 0.0,-0.276142374915 -0.276142374915,-0.5 -0.5,-0.5 l -1 0 l -1 0 c -0.276142374915,0.0 -0.5,0.276142374915 -0.5,0.5 c 0.0,0.276142374915 0.276142374915,0.5 0.5,0.5  z" />
<path d="M 12.0 35.5 c 0.0,0.276142374915 0.276142374915,0.5 0.5,0.5 l 1 0 c 0.276142374915,0.0 0.5,-0.276142374915 0.5,-0.5 l 0 -1 c 0.0,-0.276142374915 -0.276142374915,-0.5 -0.5,-0.5 l -1 0 c -0.276142374915,0.0 -0.5,0.276142374915 -0.5,0.5 l 0 1  z" />
<path d="M 13.0 10.5 c 0.0,0.276142374915 0.276142374915,0.5 0.5,0.5 c 0.276142374915,0.0 0.5,-0.276142374915 0.5,-0.5 l 0 -1 c 0.0,-0.276142374915 -0.276142374915,-0.5 -0.5,-0.5 c -0.276142374915,0.0 -0.5,0.276142374915 -0.5,0.5 l 0 1  z" />
<path d="M 13.0 14.5 c 0.0,0.276142374915 0.276142374915,0.5 0.5,0.5 c 0.276142374915,0.0 0.5,-0.276142374915 0.5,-0.5 c 0.0,-0.276142374915 -0.276142374915,-0.5 -0.5,-0.5 c -0.276142374915,0.0 -0.5,0.276142374915 -0.5,0.5  z" class="colour" />
<path d="M 14.5 8.0 c 0.276142374915,0.0 0.5,-0.276142374915 0.5,-0.5 c 0.0,-0.276142374915 -0.276142374915,-0.5 -0.5,-0.5 c -0.276142374915,0.0 -0.5,0.276142374915 -0.5,0.5 c 0.0,0.276142374915 0.276142374915,0.5 0.5,0.5  z" class="colour" />
<path d="M 14.0 12.5 c 0.0,0.276142374915 0.276142374915,0.5 0.5,0.5 l 1 0 l 1 0 c 0.276142374915,0.0 0.5,-0.276142374915 0.5,-0.5 c 0.0,-0.276142374915 -0.276142374915,-0.5 -0.5,-0.5 c -0.276142374915,0.0 -0.5,-0.276142374915 -0.5,-0.5 c 0.0,-0.276142374915 -0.276142374915,-0.5 -0.5,-0.5 c -0.276142374915,0.0 -0.5,0.276142374915 -0.5,0.5 c 0.0,0.276142374915 -0.276142374915,0.5 -0.5,0.5 c -0.276142374915,0.0 -0.5,0.276142374915 -0.5,0.5  z" />
<path d="M 14.0 16.5 c 0.0,0.276142374915 0.276142374915,0.5 0.5,0.5 c 0.276142374915,0.0 0.5,-0.276142374915 0.5,-0.5 c 0.0,-0.276142374915 -0.276142374915,-0.5 -0.5,-0.5 c -0.276142374915,0.0 -0.5,0.276142374915 -0.5,0.5  z" class="colour" />
<path d="M 14.5 19.0 c 0.276142374915,0.0 0.5,0.276142374915 0.5,0.5 c 0.0,0.276142374915 -0.276142374915,0.5 -0.5,0.5 c -0.276142374915,0.0 -0.5,-0.276142374915 -0.5,-0.5 c 0.0,-0.276142374915 0.276142374915,-0.5 0.5,-0.5  z" class="reverse" />
<path d="M 14.0 24.5 c 0.0,0.276142374915 0.276142374915,0.5 0.5,0.5 c 0.276142374915,0.0 0.5,0.276142374915 0.5,0.5 c 0.0,0.276142374915 0.276142374915,0.5 0.5,0.5 c 0.276142374915,0.0 0.5,-0.276142374915 0.5,-0.5 l 0 -1 c 0.0,-0.276142374915 0.276142374915,-0.5 0.5,-0.5 c 0.276142374915,0.0 0.5,-0.276142374915 0.5,-0.5 c 0.0,-0.276142374915 0.276142374915,-0.5 0.5,-0.5 c 0.276142374915,0.0 0.5,-0.276142374915 0.5,-0.5 c 0.0,-0.276142374915 -0.276142374915,-0.5 -0.5,-0.5 l -1 0 c -0.276142374915,0.0 -0.5,0.276142374915 -0.5,0.5 c 0.0,0.276142374915 -0.276142374915,0.5 -0.5,0.5 c -0.276142374915,0.0 -0.5,0.276142374915 -0.5,0.5 c 0.0,0.276142374915 -0.276142374915,0.5 -0.5,0.5 c -0.276142374915,0.0 -0.5,0.276142374915 -0.5,0.5  z" />
<path d="M 14.0 33.5 c 0.0,0.276142374915 0.276142374915,0.5 0.5,0.5 l 1 0 c 0.276142374915,0.0 0.5,-0.276142374915 0.5,-0.5 c 0.0,-0.276142374915 -0.276142374915,-0.5 -0.5,-0.5 c -0.276142374915,0.0 -0.5,-0.276142374915 -0.5,-0.5 c 0.0,-0.276142374915 -0.276142374915,-0.5 -0.5,-0.5 c -0.276142374915,0.0 -0.5,0.276142374915 -0.5,0.5 l 0 1  z" />
<path d="M 15.0 9.5 c 0.0,0.276142374915 0.276142374915,0.5 0.5,0.5 c 0.276142374915,0.0 0.5,-0.276142374915 0.5,-0.5 c 0.0,-0.276142374915 -0.276142374915,-0.5 -0.5,-0.5 c -0.276142374915,0.0 -0.5,0.276142374915 -0.5,0.5  z" class="colour" />
<path d="M 15.5 29.0 c 0.276142374915,0.0 0.5,0.276142374915 0.5,0.5 l 0 1 l 0 1 l 0 1 c 0.0,0.276142374915 0.276142374915,0.5 0.5,0.5 c 0.276142374915,0.0 0.5,-0.276142374915 0.5,-0.5 l 0 -1 c 0.0,-0.276142374915 0.276142374915,-0.5 0.5,-0.5 c 0.276142374915,0.0 0.5,-0.276142374915 0.5,-0.5 c 0.0,-0.276142374915 0.276142374915,-0.5 0.5,-0.5 c 0.276142374915,0.0 0.5,-0.276142374915 0.5,-0.5 c 0.0,-0.276142374915 -0.276142374915,-0.5 -0.5,-0.5 c -0.276142374915,0.0 -0.5,-0.276142374915 -0.5,-0.5 c 0.0,-0.276142374915 -0.276142374915,-0.5 -0.5,-0.5 c -0.276142374915,0.0 -0.5,-0.276142374915 -0.5,-0.5 c 0.0,-0.276142374915 -0.276142374915,-0.5 -0.5,-0.5 c -0.276142374915,0.0 -0.5,0.276142374915 -0.5,0.5 c 0.0,0.276142374915 -0.276142374915,0.5 -0.5,0.5 c -0.276142374915,0.0 -0.5,0.276142374915 -0.5,0.5 c 0.0,0.276142374915 0.276142374915,0.5 0.5,0.5  z" />
<path d="M 14.5 30.0 c -0.276142374915,0.0 -0.5,0.276142374915 -0.5,0.5 c 0.0,0.276142374915 0.276142374915,0.5 0.5,0.5 c 0.276142374915,0.0 0.5,-0.276142374915 0.5,-0.5 c 0.0,-0.276142374915 -0.276142374915,-0.5 -0.5,-0.5  z" class="colour" />
<path d="M 16.0 4.5 c 0.0,0.276142374915 0.276142374915,0.5 0.5,0.5 c 0.276142374915,0.0 0.5,-0.276142374915 0.5,-0.5 c 0.0,-0.276142374915 -0.276142374915,-0.5 -0.5,-0.5 c -0.276142374915,0.0 -0.5,0.276142374915 -0.5,0.5  z" class="colour" />
<path d="M 16.0 14.5 c 0.0,0.276142374915 0.276142374915,0.5 0.5,0.5 l 1 0 l 1 0 c 0.276142374915,0.0 0.5,-0.276142374915 0.5,-0.5 l 0 -1 c 0.0,-0.276142374915 -0.276142374915,-0.5 -0.5,-0.5 l -1 0 c -0.276142374915,0.0 -0.5,0.276142374915 -0.5,0.5 c 0.0,0.276142374915 -0.276142374915,0.5 -0.5,0.5 c -0.276142374915,0.0 -0.5,0.276142374915 -0.5,0.5  z" />
<path d="M 16.0 16.5 l 0 1 c 0.0,0.276142374915 0.276142374915,0.5 0.5,0.5 l 1 0 c 0.276142374915,0.0 0.5,-0.276142374915 0.5,-0.5 c 0.0,-0.276142374915 0.276142374915,-0.5 0.5,-0.5 c 0.276142374915,0.0 0.5,-0.276142374915 0.5,-0.5 c 0.0,-0.276142374915 -0.276142374915,-0.5 -0.5,-0.5 l -1 0 l -1 0 c -0.276142374915,0.0 -0.5,0.276142374915 -0.5,0.5  z" />
<path d="M 17.0 3.5 c 0.0,0.276142374915 0.276142374915,0.5 0.5,0.5 c 0.276142374915,0.0 0.5,0.276142374915 0.5,0.5 l 0 1 c 0.0,0.276142374915 -0.276142374915,0.5 -0.5,0.5 c -0.276142374915,0.0 -0.5,0.276142374915 -0.5,0.5 c 0.0,0.276142374915 0.276142374915,0.5 0.5,0.5 c 0.276142374915,0.0 0.5,0.276142374915 0.5,0.5 c 0.0,0.276142374915 0.276142374915,0.5 0.5,0.5 c 0.276142374915,0.0 0.5,-0.276142374915 0.5,-0.5 c 0.0,-0.276142374915 0.276142374915,-0.5 0.5,-0.5 c 0.276142374915,0.0 0.5,-0.276142374915 0.5,-0.5 c 0.0,-0.276142374915 0.276142374915,-0.5 0.5,-0.5 c 0.276142374915,0.0 0.5,0.276142374915 0.5,0.5 c 0.0,0.276142374915 0.276142374915,0.5 0.5,0.5 c 0.276142374915,0.0 0.5,-0.276142374915 0.5,-0.5 l 0 -1 c 0.0,-0.276142374915 0.276142374915,-0.5 0.5,-0.5 l 1 0 c 0.276142374915,0.0 0.5,-0.276142374915 0.5,-0.5 c 0.0,-0.276142374915 -0.276142374915,-0.5 -0.5,-0.5 l -1 0 c -0.276142374915,0.0 -0.5,-0.276142374915 -0.5,-0.5 c 0.0,-0.276142374915 -0.276142374915,-0.5 -0.5,-0.5 c -0.276142374915,0.0 -0.5,0.276142374915 -0.5,0.5 l 0 1 c 0.0,0.276142374915 -0.276142374915,0.5 -0.5,0.5 c -0.276142374915,0.0 -0.5,-0.276142374915 -0.5,-0.5 l 0 -1 c 0.0,-0.276142374915 -0.276142374915,-0.5 -0.5,-0.5 l -1 0 l -1 0 c -0.276142374915,0.0 -0.5,0.276142374915 -0.5,0.5  z" />
<path d="M 17.0 9.5 c 0.0,0.276142374915 0.276142374915,0.5 0.5,0.5 c 0.276142374915,0.0 0.5,-0.276142374915 0.5,-0.5 c 0.0,-0.276142374915 -0.276142374915,-0.5 -0.5,-0.5 c -0.276142374915,0.0 -0.5,0.276142374915 -0.5,0.5  z" class="colour" />
<path d="M 17.0 10.5 c 0.0,-0.276142374915 -0.276142374915,-0.5 -0.5,-0.5 c -0.276142374915,0.0 -0.5,0.276142374915 -0.5,0.5 c 0.0,0.276142374915 0.276142374915,0.5 0.5,0.5 c 0.276142374915,0.0 0.5,-0.276142374915 0.5,-0.5  z" class="colour" />
<path d="M 17.0 19.5 c 0.0,0.276142374915 0.276142374915,0.5 0.5,0.5 c 0.276142374915,0.0 0.5,-0.276142374915 0.5,-0.5 c 0.0,-0.276142374915 -0.276142374915,-0.5 -0.5,-0.5 c -0.276142374915,0.0 -0.5,0.276142374915 -0.5,0.5  z" class="colour" />
<path d="M 17.0 26.5 c 0.0,0.276142374915 0.276142374915,0.5 0.5,0.5 c 0.276142374915,0.0 0.5,0.276142374915 0.5,0.5 c 0.0,0.276142374915 0.276142374915,0.5 0.5,0.5 l 1 0 c 0.276142374915,0.0 0.5,0.276142374915 0.5,0.5 c 0.0,0.276142374915 0.276142374915,0.5 0.5,0.5 c 0.276142374915,0.0 0.5,0.276142374915 0.5,0.5 c 0.0,0.276142374915 0.276142374915,0.5 0.5,0.5 c 0.276142374915,0.0 0.5,-0.276142374915 0.5,-0.5 c 0.0,-0.276142374915 0.276142374915,-0.5 0.5,-0.5 c 0.276142374915,0.0 0.5,0.276142374915 0.5,0.5 l 0 1 c 0.0,0.276142374915 0.276142374915,0.5 0.5,0.5 c 0.276142374915,0.0 0.5,0.276142374915 0.5,0.5 c 0.0,0.276142374915 0.276142374915,0.5 0.5,0.5 c 0.276142374915,0.0 0.5,-0.276142374915 0.5,-0.5 c 0.0,-0.276142374915 0.276142374915,-0.5 0.5,-0.5 l 1 0 c 0.276142374915,0.0 0.5,0.276142374915 0.5,0.5 c 0.0,0.276142374915 -0.276142374915,0.5 -0.5,0.5 l -1 0 c -0.276142374915,0.0 -0.5,0.276142374915 -0.5,0.5 l 0 1 c 0.0,0.276142374915 -0.276142374915,0.5 -0.5,0.5 c -0.276142374915,0.0 -0.5,0.276142374915 -0.5,0.5 l 0 1 c 0.0,0.276142374915 0.276142374915,0.5 0.5,0.5 l 1 0 c 0.276142374915,0.0 0.5,-0.276142374915 0.5,-0.5 l 0 -1 l 0 -1 c 0.0,-0.276142374915 0.276142374915,-0.5 0.5,-0.5 l 1 0 c 0.276142374915,0.0 0.5,-0.276142374915 0.5,-0.5 c 0.0,-0.276142374915 0.276142374915,-0.5 0.5,-0.5 l 1 0 l 1 0 c 0.276142374915,0.0 0.5,0.276142374915 0.5,0.5 c 0.0,0.276142374915 0.276142374915,0.5 0.5,0.5 l 1 0 c 0.276142374915,0.0 0.5,0.276142374915 0.5,0.5 c 0.0,0.276142374915 -0.276142374915,0.5 -0.5,0.5 c -0.276142374915,0.0 -0.5,0.276142374915 -0.5,0.5 c 0.0,0.276142374915 0.276142374915,0.5 0.5,0.5 l 1 0 c 0.276142374915,0.0 0.5,-0.276142374915 0.5,-0.5 l 0 -1 c 0.0,-0.276142374915 0.276142374915,-0.5 0.5,-0.5 c 0.276142374915,0.0 0.5,-0.276142374915 0.5,-0.5 l 0 -1 c 0.0,-0.276142374915 0.276142374915,-0.5 0.5,-0.5 c 0.276142374915,0.0 0.5,-0.276142374915 0.5,-0.5 c 0.0,-0.276142374915 -0.276142374915,-0.5 -0.5,-0.5 c -0.276142374915,0.0 -0.5,-0.276142374915 -0.5,-0.5 c 0.0,-0.276142374915 -0.276142374915,-0.5 -0.5,-0.5 c -0.276142374915,0.0 -0.5,-0.276142374915 -0.5,-0.5 c 0.0,-0.276142374915 -0.276142374915,-0.5 -0.5,-0.5 l -1 0 c -0.276142374915,0.0 -0.5,-0.276142374915 -0.5,-0.5 c 0.0,-0.276142374915 0.276142374915,-0.5 0.5,-0.5 l 1 0 c 0.276142374915,0.0 0.5,0.276142374915 0.5,0.5 c 0.0,0.276142374915 0.276142374915,0.5 0.5,0.5 c 0.276142374915,0.0 0.5,0.276142374915 0.5,0.5 c 0.0,0.276142374915 0.276142374915,0.5 0.5,0.5 c 0.276142374915,0.0 0.5,-0.276142374915 0.5,-0.5 l 0 -1 c 0.0,-0.276142374915 -0.276142374915,-0.5 -0.5,-0.5 c -0.276142374915,0.0 -0.5,-0.276142374915 -0.5,-0.5 c 0.0,-0.276142374915 -0.276142374915,-0.5 -0.5,-0.5 c -0.276142374915,0.0 -0.5,-0.276142374915 -0.5,-0.5 l 0 -1 c 0.0,-0.276142374915 -0.276142374915,-0.5 -0.5,-0.5 c -0.276142374915,0.0 -0.5,-0.276142374915 -0.5,-0.5 c 0.0,-0.276142374915 0.276142374915,-0.5 0.5,-0.5 c 0.276142374915,0.0 0.5,0.276142374915 0.5,0.5 c 0.0,0.276142374915 0.276142374915,0.5 0.5,0.5 c 0.276142374915,0.0 0.5,0.276142374915 0.5,0.5 c 0.0,0.276142374915 0.276142374915,0.5 0.5,0.5 c 0.276142374915,0.0 0.5,-0.276142374915 0.5,-0.5 l 0 -1 l 0 -1 c 0.0,-0.276142374915 -0.276142374915,-0.5 -0.5,-0.5 c -0.276142374915,0.0 -0.5,-0.276142374915 -0.5,-0.5 c 0.0,-0.276142374915 0.276142374915,-0.5 0.5,-0.5 c 0.276142374915,0.0 0.5,-0.276142374915 0.5,-0.5 l 0 -1 l 0 -1 c 0.0,-0.276142374915 -0.276142374915,-0.5 -0.5,-0.5 c -0.276142374915,0.0 -0.5,0.276142374915 -0.5,0.5 c 0.0,0.276142374915 -0.276142374915,0.5 -0.5,0.5 c -0.276142374915,0.0 -0.5,0.276142374915 -0.5,0.5 l 0 1 c 0.0,0.276142374915 -0.276142374915,0.5 -0.5,0.5 c -0.276142374915,0.0 -0.5,0.276142374915 -0.5,0.5 c 0.0,0.276142374915 -0.276142374915,0.5 -0.5,0.5 c -0.276142374915,0.0 -0.5,0.276142374915 -0.5,0.5 c 0.0,0.276142374915 -0.276142374915,0.5 -0.5,0.5 c -0.276142374915,0.0 -0.5,0.276142374915 -0.5,0.5 c 0.0,0.276142374915 0.276142374915,0.5 0.5,0.5 c 0.276142374915,0.0 0.5,0.276142374915 0.5,0.5 c 0.0,0.276142374915 0.276142374915,0.5 0.5,0.5 c 0.276142374915,0.0 0.5,0.276142374915 0.5,0.5 c 0.0,0.276142374915 -0.276142374915,0.5 -0.5,0.5 l -1 0 c -0.276142374915,0.0 -0.5,-0.276142374915 -0.5,-0.5 c 0.0,-0.276142374915 -0.276142374915,-0.5 -0.5,-0.5 c -0.276142374915,0.0 -0.5,0.276142374915 -0.5,0.5 l 0 1 c 0.0,0.276142374915 -0.276142374915,0.5 -0.5,0.5 l -1 0 l -1 0 c -0.276142374915,0.0 -0.5,-0.276142374915 -0.5,-0.5 c 0.0,-0.276142374915 0.276142374915,-0.5 0.5,-0.5 c 0.276142374915,0.0 0.5,-0.276142374915 0.5,-0.5 c 0.0,-0.276142374915 -0.276142374915,-0.5 -0.5,-0.5 l -1 0 c -0.276142374915,0.0 -0.5,0.276142374915 -0.5,0.5 l 0 1 c 0.0,0.276142374915 -0.276142374915,0.5 -0.5,0.5 c -0.276142374915,0.0 -0.5,0.276142374915 -0.5,0.5 c 0.0,0.276142374915 0.276142374915,0.5 0.5,0.5 l 1 0 c 0.276142374915,0.0 0.5,0.276142374915 0.5,0.5 c 0.0,0.276142374915 -0.276142374915,0.5 -0.5,0.5 c -0.276142374915,0.0 -0.5,0.276142374915 -0.5,0.5 c 0.0,0.276142374915 -0.276142374915,0.5 -0.5,0.5 c -0.276142374915,0.0 -0.5,-0.276142374915 -0.5,-0.5 l 0 -1 c 0.0,-0.276142374915 -0.276142374915,-0.5 -0.5,-0.5 c -0.276142374915,0.0 -0.5,-0.276142374915 -0.5,-0.5 c 0.0,-0.276142374915 -0.276142374915,-0.5 -0.5,-0.5 l -1 0 c -0.276142374915,0.0 -0.5,0.276142374915 -0.5,0.5 c 0.0,0.276142374915 -0.276142374915,0.5 -0.5,0.5 c -0.276142374915,0.0 -0.5,-0.276142374915 -0.5,-0.5 l 0 -1 c 0.0,-0.276142374915 -0.276142374915,-0.5 -0.5,-0.5 c -0.276142374915,0.0 -0.5,-0.276142374915 -0.5,-0.5 l 0 -1 c 0.0,-0.276142374915 -0.276142374915,-0.5 -0.5,-0.5 c -0.276142374915,0.0 -0.5,0.276142374915 -0.5,0.5 l 0 1 c 0.0,0.276142374915 -0.276142374915,0.5 -0.5,0.5 l -1 0 c -0.276142374915,0.0 -0.5,0.276142374915 -0.5,0.5  z" />
<path d="M 17.0 34.5 c 0.0,0.276142374915 0.276142374915,0.5 0.5,0.5 c 0.276142374915,0.0 0.5,0.276142374915 0.5,0.5 c 0.0,0.276142374915 0.276142374915,0.5 0.5,0.5 c 0.276142374915,0.0 0.5,-0.276142374915 0.5,-0.5 c 0.0,-0.276142374915 0.276142374915,-0.5 0.5,-0.5 l 1 0 l 1 0 c 0.276142374915,0.0 0.5,0.276142374915 0.5,0.5 c 0.0,0.276142374915 0.276142374915,0.5 0.5,0.5 c 0.276142374915,0.0 0.5,-0.276142374915 0.5,-0.5 l 0 -1 c 0.0,-0.276142374915 0.276142374915,-0.5 0.5,-0.5 c 0.276142374915,0.0 0.5,-0.276142374915 0.5,-0.5 c 0.0,-0.276142374915 -0.276142374915,-0.5 -0.5,-0.5 l -1 0 c -0.276142374915,0.0 -0.5,-0.276142374915 -0.5,-0.5 c 0.0,-0.276142374915 -0.276142374915,-0.5 -0.5,-0.5 l -1 0 c -0.276142374915,0.0 -0.5,0.276142374915 -0.5,0.5 c 0.0,0.276142374915 0.276142374915,0.5 0.5,0.5 c 0.276142374915,0.0 0.5,0.276142374915 0.5,0.5 c 0.0,0.276142374915 -0.276142374915,0.5 -0.5,0.5 c -0.276142374915,0.0 -0.5,-0.276142374915 -0.5,-0.5 c 0.0,-0.276142374915 -0.276142374915,-0.5 -0.5,-0.5 l -1 0 l -1 0 c -0.276142374915,0.0 -0.5,0.276142374915 -0.5,0.5 l 0 1  z" />
<path d="M 18.5 11.0 c 0.276142374915,0.0 0.5,-0.276142374915 0.5,-0.5 c 0.0,-0.276142374915 -0.276142374915,-0.5 -0.5,-0.5 c -0.276142374915,0.0 -0.5,0.276142374915 -0.5,0.5 c 0.0,0.276142374915 0.276142374915,0.5 0.5,0.5  z" class="colour" />
<path d="M 18.0 21.5 c 0.0,0.276142374915 0.276142374915,0.5 0.5,0.5 c 0.276142374915,0.0 0.5,-0.276142374915 0.5,-0.5 l 0 -1 c 0.0,-0.276142374915 -0.276142374915,-0.5 -0.5,-0.5 c -0.276142374915,0.0 -0.5,0.276142374915 -0.5,0.5 l 0 1  z" />
<path d="M 19.0 9.5 c 0.0,0.276142374915 0.276142374915,0.5 0.5,0.5 c 0.276142374915,0.0 0.5,-0.276142374915 0.5,-0.5 c 0.0,-0.276142374915 -0.276142374915,-0.5 -0.5,-0.5 c -0.276142374915,0.0 -0.5,0.276142374915 -0.5,0.5  z" class="colour" />
<path d="M 18.5 18.0 c -0.276142374915,0.0 -0.5,0.276142374915 -0.5,0.5 c 0.0,0.276142374915 0.276142374915,0.5 0.5,0.5 c 0.276142374915,0.0 0.5,-0.276142374915 0.5,-0.5 c 0.0,-0.276142374915 -0.276142374915,-0.5 -0.5,-0.5  z" class="colour" />
<path d="M 19.0 31.5 c 0.0,0.276142374915 0.276142374915,0.5 0.5,0.5 c 0.276142374915,0.0 0.5,-0.276142374915 0.5,-0.5 c 0.0,-0.276142374915 -0.276142374915,-0.5 -0.5,-0.5 c -0.276142374915,0.0 -0.5,0.276142374915 -0.5,0.5  z" class="colour" />
<path d="M 20.0 8.5 c 0.0,0.276142374915 0.276142374915,0.5 0.5,0.5 c 0.276142374915,0.0 0.5,0.276142374915 0.5,0.5 c 0.0,0.276142374915 0.276142374915,0.5 0.5,0.5 c 0.276142374915,0.0 0.5,-0.276142374915 0.5,-0.5 l 0 -1 c 0.0,-0.276142374915 -0.276142374915,-0.5 -0.5,-0.5 c -0.276142374915,0.0 -0.5,-0.276142374915 -0.5,-0.5 c 0.0,-0.276142374915 -0.276142374915,-0.5 -0.5,-0.5 c -0.276142374915,0.0 -0.5,0.276142374915 -0.5,0.5 l 0 1  z" />
<path d="M 20.0 12.5 c 0.0,0.276142374915 0.276142374915,0.5 0.5,0.5 l 1 0 c 0.276142374915,0.0 0.5,-0.276142374915 0.5,-0.5 c 0.0,-0.276142374915 -0.276142374915,-0.5 -0.5,-0.5 l -1 0 c -0.276142374915,0.0 -0.5,0.276142374915 -0.5,0.5  z" />
<path d="M 20.0 23.5 c 0.0,0.276142374915 0.276142374915,0.5 0.5,0.5 l 1 0 c 0.276142374915,0.0 0.5,-0.276142374915 0.5,-0.5 c 0.0,-0.276142374915 -0.276142374915,-0.5 -0.5,-0.5 l -1 0 c -0.276142374915,0.0 -0.5,0.276142374915 -0.5,0.5  z" />
<path d="M 20.0 30.5 c 0.0,0.276142374915 0.276142374915,0.5 0.5,0.5 c 0.276142374915,0.0 0.5,-0.276142374915 0.5,-0.5 c 0.0,-0.276142374915 -0.276142374915,-0.5 -0.5,-0.5 c -0.276142374915,0.0 -0.5,0.276142374915 -0.5,0.5  z" class="colour" />
<path d="M 22.0 11.5 c 0.0,0.276142374915 0.276142374915,0.5 0.5,0.5 c 0.276142374915,0.0 0.5,-0.276142374915 0.5,-0.5 c 0.0,-0.276142374915 -0.276142374915,-0.5 -0.5,-0.5 c -0.276142374915,0.0 -0.5,0.276142374915 -0.5,0.5  z" class="colour" />
<path d="M 22.5 7.0 c -0.276142374915,0.0 -0.5,0.276142374915 -0.5,0.5 c 0.0,0.276142374915 0.276142374915,0.5 0.5,0.5 l 1 0 l 1 0 c 0.276142374915,0.0 0.5,-0.276142374915 0.5,-0.5 c 0.0,-0.276142374915 -0.276142374915,-0.5 -0.5,-0.5 l -1 0 l -1 0  z" />
<path d="M 23.0 9.5 l 0 1 c 0.0,0.276142374915 0.276142374915,0.5 0.5,0.5 l 1 0 c 0.276142374915,0.0 0.5,0.276142374915 0.5,0.5 l 0 1 c 0.0,0.276142374915 0.276142374915,0.5 0.5,0.5 l 1 0 c 0.276142374915,0.0 0.5,-0.276142374915 0.5,-0.5 c 0.0,-0.276142374915 -0.276142374915,-0.5 -0.5,-0.5 c -0.276142374915,0.0 -0.5,-0.276142374915 -0.5,-0.5 l 0 -1 l 0 -1 c 0.0,-0.276142374915 -0.276142374915,-0.5 -0.5,-0.5 c -0.276142374915,0.0 -0.5,0.276142374915 -0.5,0.5 c 0.0,0.276142374915 -0.276142374915,0.5 -0.5,0.5 c -0.276142374915,0.0 -0.5,-0.276142374915 -0.5,-0.5 c 0.0,-0.276142374915 -0.276142374915,-0.5 -0.5,-0.5 c -0.276142374915,0.0 -0.5,0.276142374915 -0.5,0.5  z" />
<path d="M 23.0 13.5 c 0.0,0.276142374915 0.276142374915,0.5 0.5,0.5 c 0.276142374915,0.0 0.5,-0.276142374915 0.5,-0.5 l 0 -1 c 0.0,-0.276142374915 -0.276142374915,-0.5 -0.5,-0.5 c -0.276142374915,0.0 -0.5,0.276142374915 -0.5,0.5 l 0 1  z" />
<path d="M 23.0 24.5 c 0.0,0.276142374915 0.276142374915,0.5 0.5,0.5 c 0.276142374915,0.0 0.5,-0.276142374915 0.5,-0.5 c 0.0,-0.276142374915 -0.276142374915,-0.5 -0.5,-0.5 c -0.276142374915,0.0 -0.5,0.276142374915 -0.5,0.5  z" class="colour" />
<path d="M 24.0 3.5 c 0.0,0.276142374915 0.276142374915,0.5 0.5,0.5 c 0.276142374915,0.0 0.5,-0.276142374915 0.5,-0.5 c 0.0,-0.276142374915 -0.276142374915,-0.5 -0.5,-0.5 c -0.276142374915,0.0 -0.5,0.276142374915 -0.5,0.5  z" class="colour" />
<path d="M 24.5 6.0 c 0.276142374915,0.0 0.5,0.276142374915 0.5,0.5 c 0.0,0.276142374915 0.276142374915,0.5 0.5,0.5 l 1 0 c 0.276142374915,0.0 0.5,-0.276142374915 0.5,-0.5 l 0 -1 c 0.0,-0.276142374915 -0.276142374915,-0.5 -0.5,-0.5 l -1 0 l -1 0 c -0.276142374915,0.0 -0.5,0.276142374915 -0.5,0.5 c 0.0,0.276142374915 0.276142374915,0.5 0.5,0.5  z" />
<path d="M 24.0 26.5 c 0.0,0.276142374915 0.276142374915,0.5 0.5,0.5 c 0.276142374915,0.0 0.5,-0.276142374915 0.5,-0.5 c 0.0,-0.276142374915 -0.276142374915,-0.5 -0.5,-0.5 c -0.276142374915,0.0 -0.5,0.276142374915 -0.5,0.5  z" class="colour" />
<path d="M 25.0 23.5 c 0.0,0.276142374915 0.276142374915,0.5 0.5,0.5 l 1 0 l 1 0 c 0.276142374915,0.0 0.5,-0.276142374915 0.5,-0.5 c 0.0,-0.276142374915 -0.276142374915,-0.5 -0.5,-0.5 l -1 0 l -1 0 c -0.276142374915,0.0 -0.5,0.276142374915 -0.5,0.5  z" />
<path d="M 26.0 3.5 c 0.0,0.276142374915 0.276142374915,0.5 0.5,0.5 l 1 0 c 0.276142374915,0.0 0.5,-0.276142374915 0.5,-0.5 c 0.0,-0.276142374915 -0.276142374915,-0.5 -0.5,-0.5 l -1 0 c -0.276142374915,0.0 -0.5,0.276142374915 -0.5,0.5  z" />
<path d="M 27.5 8.0 c 0.276142374915,0.0 0.5,-0.276142374915 0.5,-0.5 c 0.0,-0.276142374915 -0.276142374915,-0.5 -0.5,-0.5 c -0.276142374915,0.0 -0.5,0.276142374915 -0.5,0.5 c 0.0,0.276142374915 0.276142374915,0.5 0.5,0.5  z" class="colour" />
<path d="M 27.0 9.5 l 0 1 c 0.0,0.276142374915 0.276142374915,0.5 0.5,0.5 c 0.276142374915,0.0 0.5,-0.276142374915 0.5,-0.5 l 0 -1 c 0.0,-0.276142374915 -0.276142374915,-0.5 -0.5,-0.5 c -0.276142374915,0.0 -0.5,0.276142374915 -0.5,0.5  z" />
<path d="M 27.0 35.5 c 0.0,0.276142374915 0.276142374915,0.5 0.5,0.5 c 0.276142374915,0.0 0.5,-0.276142374915 0.5,-0.5 c 0.0,-0.276142374915 -0.276142374915,-0.5 -0.5,-0.5 c -0.276142374915,0.0 -0.5,0.276142374915 -0.5,0.5  z" class="colour" />
<path d="M 28.0 12.5 c 0.0,0.276142374915 0.276142374915,0.5 0.5,0.5 l 1 0 c 0.276142374915,0.0 0.5,-0.276142374915 0.5,-0.5 c 0.0,-0.276142374915 0.276142374915,-0.5 0.5,-0.5 c 0.276142374915,0.0 0.5,-0.276142374915 0.5,-0.5 c 0.0,-0.276142374915 -0.276142374915,-0.5 -0.5,-0.5 l -1 0 l -1 0 c -0.276142374915,0.0 -0.5,0.276142374915 -0.5,0.5 l 0 1  z" />
<path d="M 28.5 28.0 l 1 0 l 1 0 c 0.276142374915,0.0 0.5,0.276142374915 0.5,0.5 l 0 1 l 0 1 c 0.0,0.276142374915 -0.276142374915,0.5 -0.5,0.5 l -1 0 l -1 0 c -0.276142374915,0.0 -0.5,-0.276142374915 -0.5,-0.5 l 0 -1 l 0 -1 c 0.0,-0.276142374915 0.276142374915,-0.5 0.5,-0.5  z" class="reverse" />
<path d="M 28.5 34.0 l 1 0 c 0.276142374915,0.0 0.5,-0.276142374915 0.5,-0.5 c 0.0,-0.276142374915 -0.276142374915,-0.5 -0.5,-0.5 l -1 0 c -0.276142374915,0.0 -0.5,0.276142374915 -0.5,0.5 c 0.0,0.276142374915 0.276142374915,0.5 0.5,0.5  z" />
<path d="M 29.0 3.5 l 0 1 l 0 1 l 0 1 l 0 1 l 0 1 l 0 1 c 0.0,0.276142374915 0.276142374915,0.5 0.5,0.5 l 1 0 l 1 0 l 1 0 l 1 0 l 1 0 l 1 0 c 0.276142374915,0.0 0.5,-0.276142374915 0.5,-0.5 l 0 -1 l 0 -1 l 0 -1 l 0 -1 l 0 -1 l 0 -1 c 0.0,-0.276142374915 -0.276142374915,-0.5 -0.5,-0.5 l -1 0 l -1 0 l -1 0 l -1 0 l -1 0 l -1 0 c -0.276142374915,0.0 -0.5,0.276142374915 -0.5,0.5  z" />
<path d="M 29.0 29.5 c 0.0,0.276142374915 0.276142374915,0.5 0.5,0.5 c 0.276142374915,0.0 0.5,-0.276142374915 0.5,-0.5 c 0.0,-0.276142374915 -0.276142374915,-0.5 -0.5,-0.5 c -0.276142374915,0.0 -0.5,0.276142374915 -0.5,0.5  z" class="colour" />
<path d="M 29.0 35.5 c 0.0,0.276142374915 0.276142374915,0.5 0.5,0.5 c 0.276142374915,0.0 0.5,-0.276142374915 0.5,-0.5 c 0.0,-0.276142374915 -0.276142374915,-0.5 -0.5,-0.5 c -0.276142374915,0.0 -0.5,0.276142374915 -0.5,0.5  z" class="colour" />
<path d="M 30.5 4.0 l 1 0 l 1 0 l 1 0 l 1 0 c 0.276142374915,0.0 0.5,0.276142374915 0.5,0.5 l 0 1 l 0 1 l 0 1 l 0 1 c 0.0,0.276142374915 -0.276142374915,0.5 -0.5,0.5 l -1 0 l -1 0 l -1 0 l -1 0 c -0.276142374915,0.0 -0.5,-0.276142374915 -0.5,-0.5 l 0 -1 l 0 -1 l 0 -1 l 0 -1 c 0.0,-0.276142374915 0.276142374915,-0.5 0.5,-0.5  z" class="reverse" />
<path d="M 30.5 14.0 c 0.276142374915,0.0 0.5,-0.276142374915 0.5,-0.5 c 0.0,-0.276142374915 -0.276142374915,-0.5 -0.5,-0.5 c -0.276142374915,0.0 -0.5,0.276142374915 -0.5,0.5 c 0.0,0.276142374915 0.276142374915,0.5 0.5,0.5  z" class="colour" />
<path d="M 31.0 5.5 l 0 1 l 0 1 c 0.0,0.276142374915 0.276142374915,0.5 0.5,0.5 l 1 0 l 1 0 c 0.276142374915,0.0 0.5,-0.276142374915 0.5,-0.5 l 0 -1 l 0 -1 c 0.0,-0.276142374915 -0.276142374915,-0.5 -0.5,-0.5 l -1 0 l -1 0 c -0.276142374915,0.0 -0.5,0.276142374915 -0.5,0.5  z" class="colour" />
<path d="M 31.0 19.5 c 0.0,0.276142374915 0.276142374915,0.5 0.5,0.5 l 1 0 c 0.276142374915,0.0 0.5,-0.276142374915 0.5,-0.5 c 0.0,-0.276142374915 0.276142374915,-0.5 0.5,-0.5 c 0.276142374915,0.0 0.5,-0.276142374915 0.5,-0.5 c 0.0,-0.276142374915 0.276142374915,-0.5 0.5,-0.5 c 0.276142374915,0.0 0.5,-0.276142374915 0.5,-0.5 c 0.0,-0.276142374915 -0.276142374915,-0.5 -0.5,-0.5 c -0.276142374915,0.0 -0.5,-0.276142374915 -0.5,-0.5 c 0.0,-0.276142374915 -0.276142374915,-0.5 -0.5,-0.5 c -0.276142374915,0.0 -0.5,0.276142374915 -0.5,0.5 l 0 1 c 0.0,0.276142374915 -0.276142374915,0.5 -0.5,0.5 c -0.276142374915,0.0 -0.5,0.276142374915 -0.5,0.5 c 0.0,0.276142374915 -0.276142374915,0.5 -0.5,0.5 c -0.276142374915,0.0 -0.5,0.276142374915 -0.5,0.5  z" />
<path d="M 30.5 34.0 c -0.276142374915,0.0 -0.5,0.276142374915 -0.5,0.5 c 0.0,0.276142374915 0.276142374915,0.5 0.5,0.5 c 0.276142374915,0.0 0.5,-0.276142374915 0.5,-0.5 c 0.0,-0.276142374915 -0.276142374915,-0.5 -0.5,-0.5  z" class="colour" />
<path d="M 32.0 12.5 l 0 1 c 0.0,0.276142374915 0.276142374915,0.5 0.5,0.5 c 0.276142374915,0.0 0.5,-0.276142374915 0.5,-0.5 l 0 -1 c 0.0,-0.276142374915 -0.276142374915,-0.5 -0.5,-0.5 c -0.276142374915,0.0 -0.5,0.276142374915 -0.5,0.5  z" />
<path d="M 32.5 29.0 c 0.276142374915,0.0 0.5,0.276142374915 0.5,0.5 c 0.0,0.276142374915 -0.276142374915,0.5 -0.5,0.5 c -0.276142374915,0.0 -0.5,-0.276142374915 -0.5,-0.5 c 0.0,-0.276142374915 0.276142374915,-0.5 0.5,-0.5  z" class="reverse" />
<path d="M 32.5 31.0 l 1 0 c 0.276142374915,0.0 0.5,0.276142374915 0.5,0.5 c 0.0,0.276142374915 -0.276142374915,0.5 -0.5,0.5 l -1 0 c -0.276142374915,0.0 -0.5,-0.276142374915 -0.5,-0.5 c 0.0,-0.276142374915 0.276142374915,-0.5 0.5,-0.5  z" class="reverse" />
<path d="M 33.0 11.5 c 0.0,0.276142374915 0.276142374915,0.5 0.5,0.5 c 0.276142374915,0.0 0.5,0.276142374915 0.5,0.5 l 0 1 c 0.0,0.276142374915 -0.276142374915,0.5 -0.5,0.5 c -0.276142374915,0.0 -0.5,0.276142374915 -0.5,0.5 c 0.0,0.276142374915 0.276142374915,0.5 0.5,0.5 l 1 0 c 0.276142374915,0.0 0.5,-0.276142374915 0.5,-0.5 l 0 -1 c 0.0,-0.276142374915 0.276142374915,-0.5 0.5,-0.5 c 0.276142374915,0.0 0.5,-0.276142374915 0.5,-0.5 l 0 -1 c 0.0,-0.276142374915 -0.276142374915,-0.5 -0.5,-0.5 l -1 0 l -1 0 c -0.276142374915,0.0 -0.5,0.276142374915 -0.5,0.5  z" />
<path d="M 34.5 36.0 c 0.276142374915,0.0 0.5,-0.276142374915 0.5,-0.5 c 0.0,-0.276142374915 -0.276142374915,-0.5 -0.5,-0.5 c -0.276142374915,0.0 -0.5,0.276142374915 -0.5,0.5 c 0.0,0.276142374915 0.276142374915,0.5 0.5,0.5  z" class="colour" />
<path d="M 35.0 16.5 c 0.0,0.276142374915 0.276142374915,0.5 0.5,0.5 c 0.276142374915,0.0 0.5,-0.276142374915 0.5,-0.5 l 0 -1 c 0.0,-0.276142374915 -0.276142374915,-0.5 -0.5,-0.5 c -0.276142374915,0.0 -0.5,0.276142374915 -0.5,0.5 l 0 1  z" />

  

  

  
<g id="g14064" style="fill:#ff6600" transform="matrix(0.26499541,0,0,0.26499541,8.4882244,13.388967)">
    <text id="text14029" style="font-size:12.76985168px;font-style:normal;font-variant:normal;font-weight:normal;font-stretch:normal;line-height:125%;letter-spacing:0px;word-spacing:0px;fill:#ff6600;fill-opacity:1;stroke:none;font-family:Humnst777 BT;-inkscape-font-specification:Humnst777 BT" x="44.731667" xml:space="preserve" y="12.309209"><tspan id="tspan14033" style="font-size:12.76985168px;font-style:normal;font-variant:normal;font-weight:bold;font-stretch:normal;text-align:start;line-height:125%;writing-mode:lr-tb;text-anchor:start;fill:#ff6600;fill-opacity:1;font-family:Serif;-inkscape-font-specification:Serif" x="44.731667" y="12.309209">Pretty</tspan></text>
    <text id="text14060" style="font-size:23.76686096px;font-style:normal;font-variant:normal;font-weight:normal;font-stretch:normal;line-height:125%;letter-spacing:0px;word-spacing:0px;fill:#ff6600;fill-opacity:1;stroke:none;font-family:Humnst777 BT;-inkscape-font-specification:Humnst777 BT" x="43.656143" xml:space="preserve" y="31.234701"><tspan id="tspan14062" style="font-size:23.76686096px;font-style:normal;font-variant:normal;font-weight:bold;font-stretch:normal;text-align:start;line-height:125%;writing-mode:lr-tb;text-anchor:start;fill:#ff6600;fill-opacity:1;font-family:Serif;-inkscape-font-specification:Serif" x="43.656143" y="31.234701">QR</tspan></text>
  </g>

</svg>